<svg width="74" height="24" viewBox="0 0 74 24" fill="none" xmlns="http://www.w3.org/2000/svg">
<g clip-path="url(#clip0_4042_67)">
<path d="M38.3141 1.12366C35.3322 0.410215 32.4701 4.89767 30.9093 10.9045C29.3486 16.9114 29.6801 22.1629 32.6622 22.8764C35.6443 23.5898 38.5063 19.1024 40.067 13.0955C41.6278 7.08865 41.2962 1.837 38.3141 1.12366ZM47.6834 12C47.335 18.6274 41.9487 24 34.8571 24C27.7657 24 22.9445 18.6274 23.293 12C23.6415 5.37245 29.0278 0 36.1191 0C43.2106 0 48.0319 5.37245 47.6834 12ZM64.1694 1.12366C61.1873 0.410215 58.3252 4.89767 56.7646 10.9045C55.204 16.9114 55.5351 22.1629 58.5171 22.8764C61.4992 23.5898 64.3613 19.1024 65.9219 13.0955C67.4826 7.08865 67.1509 1.837 64.1694 1.12366ZM73.5384 12C73.1901 18.6274 67.8037 24 60.7123 24C53.6209 24 48.7996 18.6274 49.148 12C49.4964 5.37245 54.8828 0 61.9742 0C69.0656 0 73.8867 5.37245 73.5384 12ZM22.078 15.724C21.8844 21.0466 16.6805 23.9334 11.3231 23.9334C6.78389 23.9334 2.5456 21.6042 0.556152 20.1877L2.7943 14.22L2.92775 14.266C6.60827 19.5451 9.7358 23.181 13.0053 22.8981C15.1676 22.7109 16.4522 21.4459 16.5434 18.9394C16.6703 15.4525 13.8964 11.1298 3.46062 12.9135L3.30449 12.8595L8.0021 0.332997H23.7476L21.6339 5.9697H6.88223L5.4913 9.679C13.827 5.5704 22.2898 9.90455 22.078 15.724Z" fill="#595959"/>
</g>
<defs>
<clipPath id="clip0_4042_67">
<rect width="73" height="24" fill="white" transform="translate(0.556152)"/>
</clipPath>
</defs>
</svg>
