<svg width="32" height="32" viewBox="0 0 32 32" fill="none" xmlns="http://www.w3.org/2000/svg">
<path d="M30.8147 15.9999C30.8147 24.1818 24.1818 30.8147 15.9999 30.8147C7.81795 30.8147 1.18506 24.1818 1.18506 15.9999C1.18506 7.81795 7.81795 1.18506 15.9999 1.18506C20.8114 1.18506 25.0864 3.47928 27.7925 7.03306L25.4775 8.71276C25.1634 8.30595 24.8218 7.91632 24.4526 7.54713C22.1948 5.28935 19.1928 4.0458 15.9999 4.0458C12.807 4.0458 9.80491 5.28935 7.54713 7.54713C5.28935 9.80491 4.0458 12.807 4.0458 15.9999C4.0458 19.1928 5.28935 22.1948 7.54713 24.4526C9.80491 26.7104 12.807 27.9539 15.9999 27.9539C19.1928 27.9539 22.1948 26.7104 24.4526 24.4526C26.3791 22.5261 27.5664 20.0577 27.8736 17.391H13.5862L17.5089 14.5308L30.7427 14.5335C30.7901 15.0159 30.815 15.5048 30.815 15.9996L30.8147 15.9999ZM21.1507 20.0609C19.9477 21.5836 18.0867 22.5637 15.9999 22.5637C12.3806 22.5637 9.43602 19.6191 9.43602 15.9999C9.43602 12.3806 12.3806 9.43602 15.9999 9.43602C18.0615 9.43602 19.9036 10.3925 21.1077 11.884L23.4286 10.1999C21.7036 7.99365 19.0174 6.57528 15.9999 6.57528C10.7948 6.57528 6.57528 10.7948 6.57528 15.9999C6.57528 21.2049 10.7948 25.4245 15.9999 25.4245C19.0425 25.4245 21.7477 23.9824 23.471 21.7448L21.1507 20.0612V20.0609Z" fill="#595959"/>
</svg>
