<svg width="157" height="28" viewBox="0 0 157 28" fill="none" xmlns="http://www.w3.org/2000/svg">
<path d="M3.17126 1.4339H8.47023V6.12047H12.2886V9.85428H8.47023V17.5536C8.47023 19.1759 8.98974 19.4849 10.7561 19.4849H12.2886V23.296H8.91181C4.62588 23.296 3.17126 22.472 3.17126 18.4807V9.85428H0.443848V6.12047H3.17126V1.4339ZM30.2635 17.9399C28.705 22.0085 25.0685 23.7595 21.6138 23.7595C15.9771 23.7595 12.1068 20.3862 12.1068 14.6439C12.1068 9.13327 16.3148 5.65696 21.4059 5.65696C27.1725 5.65696 30.7051 9.98303 30.3415 16.0859H17.4837C17.6395 18.5322 19.5617 19.6394 21.4839 19.6394C23.51 19.6394 24.7827 18.9184 25.3802 17.9141L30.2635 17.9399ZM17.5616 12.8928H25.0685C24.9646 10.7298 23.458 9.64828 21.4319 9.64828C19.5097 9.64828 17.8473 10.6268 17.5616 12.8928ZM48.5762 12.4293H43.6408C43.1733 10.4208 41.9005 9.72553 40.342 9.72553C38.4458 9.72553 36.5755 11.013 36.5755 14.6953C36.5755 18.4292 38.4458 19.6652 40.342 19.6652C42.2901 19.6652 43.511 18.6609 43.9006 17.0129H48.8359C47.641 22.1115 43.485 23.7337 40.0043 23.7337C34.2897 23.7337 31.1467 20.1029 31.1467 14.6181C31.1467 9.13327 34.7573 5.63122 40.0043 5.63122C43.5889 5.63122 47.5371 7.25349 48.5762 12.4293ZM54.7323 8.41225C55.4856 7.12473 57.3818 5.75997 60.1092 5.75997C64.551 5.75997 65.9537 8.36075 65.9537 13.0216V23.3475H60.6547V14.3606C60.6547 11.9143 60.5768 9.90578 58.0052 9.90578C55.7194 9.90578 54.7583 11.3735 54.7583 14.5923V23.399H49.4593V0.223633H54.7583L54.7323 8.41225ZM78.1621 11.1933C77.7984 9.90578 76.4477 9.54527 74.7853 9.54527C72.941 9.54527 72.0319 9.98303 72.0319 10.8328C72.0319 11.6311 72.6553 12.0946 74.1619 12.3778L77.4088 12.9443C81.5648 13.6911 83.5649 14.9271 83.5649 17.9399C83.5649 21.8025 79.9803 23.7595 75.1749 23.7595C70.5513 23.7595 67.2784 21.8282 66.681 17.7597H71.6163C72.0838 19.4077 73.4346 19.9227 75.2528 19.9227C77.149 19.9227 78.4738 19.4077 78.4738 18.3777C78.4738 17.6309 77.7984 17.1159 75.7464 16.7811L72.6553 16.2661C69.3045 15.7254 67.0186 14.0516 67.0186 11.013C67.0186 7.58824 70.6552 5.70846 74.9411 5.70846C78.8894 5.70846 82.5 7.27924 83.1493 11.219L78.1621 11.1933ZM86.2924 1.4339H91.5913V6.12047H95.4097V9.85428H91.5913V17.5536C91.5913 19.1759 92.1108 19.4849 93.8772 19.4849H95.3837V23.296H92.0329C87.747 23.296 86.2924 22.472 86.2924 18.4807V9.85428H83.5649V6.12047H86.2924V1.4339ZM107.514 11.9143C107.514 9.85428 106.527 9.18477 104.579 9.18477C102.865 9.18477 101.722 10.0603 101.488 11.7083H96.5266C96.7864 8.46376 99.8774 5.60546 105.021 5.60546C110.034 5.60546 112.865 7.614 112.761 12.8413L112.683 16.5751V18.3777C112.683 20.2574 112.813 22.2917 113.073 23.3475H107.852L107.774 21.2617C106.475 23.09 104.423 23.7595 101.93 23.7595C98.6306 23.7595 95.9292 21.854 95.9292 18.7124C95.9292 14.4893 100.735 13.1246 107.462 12.6096L107.514 11.9143ZM107.67 15.6996C103.956 16.0601 101.488 16.4206 101.488 18.3262C101.488 19.4334 102.553 20.1802 103.93 20.1802C106.06 20.1802 107.67 19.2789 107.67 16.1116V15.6996ZM124.918 11.1933C124.45 11.1161 123.931 11.0645 123.463 11.0903C120.891 11.0903 119.567 12.0173 119.567 14.6953V23.3217H114.242V6.12047H119.359V9.39077C120.164 7.33074 121.619 6.12047 124.086 6.01747H124.476C124.632 6.01747 124.762 6.01747 124.918 6.04322V11.1933ZM136.659 11.1933C136.295 9.90578 134.944 9.54527 133.282 9.54527C131.438 9.54527 130.528 9.98303 130.528 10.8328C130.528 11.6311 131.152 12.0946 132.658 12.3778L135.879 12.9443C140.035 13.6911 142.035 14.9271 142.035 17.9399C142.035 21.8025 138.451 23.7595 133.645 23.7595C129.048 23.7595 125.749 21.8282 125.151 17.7597H130.087C130.554 19.4077 131.905 19.9227 133.723 19.9227C135.62 19.9227 136.944 19.4077 136.944 18.3777C136.944 17.6309 136.269 17.1159 134.217 16.7811L131.126 16.2661C127.775 15.7254 125.515 14.0516 125.515 11.013C125.515 7.58824 129.152 5.70846 133.438 5.70846C137.386 5.70846 140.996 7.27924 141.646 11.219L136.659 11.1933Z" fill="#595959"/>
<path d="M141.932 27.7767V23.3477H156.27V27.7767H141.932Z" fill="#595959"/>
</svg>
