<svg width="93" height="32" viewBox="0 0 93 32" fill="none" xmlns="http://www.w3.org/2000/svg">
<path d="M40.0649 16.7944C40.0649 21.1494 36.658 24.3584 32.477 24.3584C28.296 24.3584 24.8892 21.1494 24.8892 16.7944C24.8892 12.4088 28.296 9.23047 32.477 9.23047C36.658 9.23047 40.0649 12.4088 40.0649 16.7944ZM36.7433 16.7944C36.7433 14.0731 34.7687 12.211 32.477 12.211C30.1853 12.211 28.2108 14.0731 28.2108 16.7944C28.2108 19.4886 30.1853 21.3778 32.477 21.3778C34.7687 21.3778 36.7433 19.4851 36.7433 16.7944Z" fill="#595959"/>
<path d="M56.4345 16.7944C56.4345 21.1494 53.0276 24.3584 48.8466 24.3584C44.6656 24.3584 41.2588 21.1494 41.2588 16.7944C41.2588 12.4122 44.6656 9.23047 48.8466 9.23047C53.0276 9.23047 56.4345 12.4088 56.4345 16.7944ZM53.1129 16.7944C53.1129 14.073 51.1383 12.211 48.8466 12.211C46.5549 12.211 44.5804 14.073 44.5804 16.7944C44.5804 19.4886 46.5549 21.3778 48.8466 21.3778C51.1383 21.3778 53.1129 19.4851 53.1129 16.7944Z" fill="#595959"/>
<path d="M72.1216 9.68744V23.2671C72.1216 28.8532 68.8272 31.1346 64.9327 31.1346C61.2667 31.1346 59.0602 28.6826 58.2281 26.6774L61.12 25.4736C61.635 26.7047 62.8968 28.1575 64.9293 28.1575C67.4222 28.1575 68.9671 26.6194 68.9671 23.7241V22.6362H68.8511C68.1077 23.5536 66.6754 24.355 64.8679 24.355C61.0859 24.355 57.6211 21.0607 57.6211 16.8217C57.6211 12.5521 61.0859 9.23047 64.8679 9.23047C66.6719 9.23047 68.1043 10.0319 68.8511 10.922H68.9671V9.69085H72.1216V9.68744ZM69.2024 16.8217C69.2024 14.1583 67.4256 12.211 65.1646 12.211C62.8729 12.211 60.9529 14.1583 60.9529 16.8217C60.9529 19.4579 62.8729 21.3778 65.1646 21.3778C67.4256 21.3778 69.2024 19.4579 69.2024 16.8217Z" fill="#595959"/>
<path d="M77.3223 1.72803V23.8948H74.0825V1.72803H77.3223Z" fill="#595959"/>
<path d="M89.9468 19.2844L92.525 21.0032C91.6929 22.2343 89.6876 24.3555 86.2228 24.3555C81.9259 24.3555 78.7168 21.0339 78.7168 16.7915C78.7168 12.2934 81.9531 9.22754 85.8511 9.22754C89.7763 9.22754 91.6963 12.3513 92.3238 14.0394L92.6682 14.8988L82.5568 19.0866C83.3309 20.6042 84.5347 21.3783 86.2228 21.3783C87.9143 21.3783 89.0874 20.5462 89.9468 19.2844ZM82.0111 16.563L88.7703 13.7564C88.3985 12.8117 87.28 12.1535 85.9636 12.1535C84.2755 12.1535 81.9259 13.6438 82.0111 16.563Z" fill="#595959"/>
<path d="M12.6259 14.8269V11.6178H23.4399C23.5456 12.1771 23.6002 12.8387 23.6002 13.5548C23.6002 15.9625 22.942 18.9397 20.8208 21.0608C18.7576 23.2093 16.1215 24.3552 12.6293 24.3552C6.15666 24.3552 0.713867 19.0829 0.713867 12.6102C0.713867 6.13751 6.15666 0.865234 12.6293 0.865234C16.2101 0.865234 18.761 2.27027 20.6776 4.10158L18.4132 6.366C17.0388 5.07692 15.1768 4.0743 12.6259 4.0743C7.8993 4.0743 4.20257 7.88357 4.20257 12.6102C4.20257 17.3368 7.8993 21.1461 12.6259 21.1461C15.6918 21.1461 17.4378 19.915 18.5564 18.7964C19.4635 17.8893 20.0603 16.5934 20.2956 14.8235L12.6259 14.8269Z" fill="#595959"/>
</svg>
