<svg width="32" height="32" viewBox="0 0 32 32" fill="none" xmlns="http://www.w3.org/2000/svg">
<g clip-path="url(#clip0_4042_49)">
<path d="M0 0H32V32H0V0Z" fill="#595959"/>
<path d="M14.9218 18.0934L9.4292 7.8042H11.9393L15.1703 14.3157C15.2201 14.4317 15.2781 14.5518 15.3443 14.6761C15.4106 14.8003 15.4686 14.9288 15.5182 15.0613C15.5514 15.1111 15.5762 15.1566 15.5928 15.1981C15.6094 15.2393 15.6259 15.2768 15.6426 15.3098C15.7224 15.4689 15.797 15.6305 15.8663 15.7944C15.9326 15.9519 15.9905 16.0969 16.0401 16.2294C16.1727 15.9477 16.3177 15.6453 16.4751 15.3223C16.6326 14.9992 16.7941 14.6636 16.9597 14.3157L20.2404 7.8042H22.5767L17.0342 18.2177V24.8536H14.9217L14.9218 18.0934Z" fill="#171819"/>
</g>
<defs>
<clipPath id="clip0_4042_49">
<rect width="32" height="32" fill="white"/>
</clipPath>
</defs>
</svg>
