<svg width="16" height="17" viewBox="0 0 16 17" fill="none" xmlns="http://www.w3.org/2000/svg">
<path d="M14.5869 10.8324C14.0087 12.4724 12.8258 13.8296 11.2802 14.6264C9.73456 15.4233 7.94296 15.5996 6.27164 15.1194C4.60033 14.6393 3.17556 13.5388 2.28866 12.043C1.40175 10.5473 1.11976 8.76923 1.50024 7.07245C1.76306 5.94727 2.30609 4.90681 3.07886 4.04779C3.85162 3.18877 4.82905 2.53909 5.92024 2.15911C6.13333 2.07964 6.36484 2.06343 6.58691 2.11245C6.80903 2.15457 7.01463 2.25855 7.18016 2.41243C7.34203 2.56709 7.4577 2.76373 7.51423 2.98037C7.57076 3.197 7.56596 3.42509 7.50023 3.63912C7.19483 4.54703 7.17616 5.52692 7.44683 6.44578C7.6413 7.12879 8.0065 7.75103 8.50803 8.25377C9.00963 8.7565 9.63103 9.1231 10.3136 9.3191C11.2299 9.5919 12.2083 9.57323 13.1135 9.26577C13.3314 9.2039 13.5623 9.2039 13.7802 9.26577C13.9968 9.32383 14.1928 9.44143 14.346 9.60523C14.4992 9.76897 14.6034 9.97243 14.6469 10.1924C14.6848 10.4073 14.6641 10.6284 14.5869 10.8324Z" fill="#5F5F5F"/>
</svg>
