<svg width="32" height="32" viewBox="0 0 32 32" fill="none" xmlns="http://www.w3.org/2000/svg">
<path d="M30.8147 16.0001C30.8147 24.182 24.1818 30.8149 15.9999 30.8149C7.81795 30.8149 1.18506 24.182 1.18506 16.0001C1.18506 7.81819 7.81795 1.1853 15.9999 1.1853C20.8114 1.1853 25.0864 3.47952 27.7925 7.0333L25.4775 8.71301C25.1634 8.30619 24.8218 7.91656 24.4526 7.54738C22.1948 5.2896 19.1928 4.04604 15.9999 4.04604C12.807 4.04604 9.80491 5.2896 7.54713 7.54738C5.28935 9.80515 4.0458 12.8072 4.0458 16.0001C4.0458 19.193 5.28935 22.1951 7.54713 24.4529C9.80491 26.7106 12.807 27.9542 15.9999 27.9542C19.1928 27.9542 22.1948 26.7106 24.4526 24.4529C26.3791 22.5263 27.5664 20.0579 27.8736 17.3912H13.5862L17.5089 14.5311L30.7427 14.5337C30.7901 15.0161 30.815 15.505 30.815 15.9998L30.8147 16.0001ZM21.1507 20.0612C19.9477 21.5838 18.0867 22.564 15.9999 22.564C12.3806 22.564 9.43602 19.6194 9.43602 16.0001C9.43602 12.3809 12.3806 9.43627 15.9999 9.43627C18.0615 9.43627 19.9036 10.3927 21.1077 11.8843L23.4286 10.2001C21.7036 7.9939 19.0174 6.57552 15.9999 6.57552C10.7948 6.57552 6.57528 10.7951 6.57528 16.0001C6.57528 21.2052 10.7948 25.4247 15.9999 25.4247C19.0425 25.4247 21.7477 23.9826 23.471 21.745L21.1507 20.0615V20.0612Z" fill="#ADADAD"/>
</svg>
