<svg width="93" height="32" viewBox="0 0 93 32" fill="none" xmlns="http://www.w3.org/2000/svg">
<path d="M40.0649 16.7947C40.0649 21.1496 36.658 24.3587 32.477 24.3587C28.296 24.3587 24.8892 21.1496 24.8892 16.7947C24.8892 12.4091 28.296 9.23071 32.477 9.23071C36.658 9.23071 40.0649 12.4091 40.0649 16.7947ZM36.7433 16.7947C36.7433 14.0733 34.7687 12.2113 32.477 12.2113C30.1853 12.2113 28.2108 14.0733 28.2108 16.7947C28.2108 19.4888 30.1853 21.3781 32.477 21.3781C34.7687 21.3781 36.7433 19.4854 36.7433 16.7947Z" fill="#ADADAD"/>
<path d="M56.4345 16.7947C56.4345 21.1496 53.0276 24.3587 48.8466 24.3587C44.6656 24.3587 41.2588 21.1496 41.2588 16.7947C41.2588 12.4125 44.6656 9.23071 48.8466 9.23071C53.0276 9.23071 56.4345 12.4091 56.4345 16.7947ZM53.1129 16.7947C53.1129 14.0733 51.1383 12.2113 48.8466 12.2113C46.5549 12.2113 44.5804 14.0733 44.5804 16.7947C44.5804 19.4888 46.5549 21.3781 48.8466 21.3781C51.1383 21.3781 53.1129 19.4854 53.1129 16.7947Z" fill="#ADADAD"/>
<path d="M72.1216 9.68769V23.2674C72.1216 28.8534 68.8272 31.1349 64.9327 31.1349C61.2667 31.1349 59.0602 28.6829 58.2281 26.6776L61.12 25.4738C61.635 26.7049 62.8968 28.1577 64.9293 28.1577C67.4222 28.1577 68.9671 26.6197 68.9671 23.7244V22.6365H68.8511C68.1077 23.5538 66.6754 24.3553 64.8679 24.3553C61.0859 24.3553 57.6211 21.0609 57.6211 16.822C57.6211 12.5523 61.0859 9.23071 64.8679 9.23071C66.6719 9.23071 68.1043 10.0321 68.8511 10.9222H68.9671V9.6911H72.1216V9.68769ZM69.2024 16.822C69.2024 14.1586 67.4256 12.2113 65.1646 12.2113C62.8729 12.2113 60.9529 14.1586 60.9529 16.822C60.9529 19.4581 62.8729 21.3781 65.1646 21.3781C67.4256 21.3781 69.2024 19.4581 69.2024 16.822Z" fill="#ADADAD"/>
<path d="M77.3223 1.72803V23.8948H74.0825V1.72803H77.3223Z" fill="#ADADAD"/>
<path d="M89.9468 19.2842L92.525 21.003C91.6929 22.2341 89.6876 24.3552 86.2228 24.3552C81.9259 24.3552 78.7168 21.0336 78.7168 16.7913C78.7168 12.2931 81.9531 9.22729 85.8511 9.22729C89.7763 9.22729 91.6963 12.3511 92.3238 14.0392L92.6682 14.8986L82.5568 19.0864C83.3309 20.604 84.5347 21.3781 86.2228 21.3781C87.9143 21.3781 89.0874 20.546 89.9468 19.2842ZM82.0111 16.5628L88.7703 13.7561C88.3985 12.8115 87.28 12.1533 85.9636 12.1533C84.2755 12.1533 81.9259 13.6436 82.0111 16.5628Z" fill="#ADADAD"/>
<path d="M12.6259 14.8269V11.6178H23.4399C23.5456 12.1771 23.6002 12.8387 23.6002 13.5548C23.6002 15.9625 22.942 18.9397 20.8208 21.0608C18.7576 23.2093 16.1215 24.3552 12.6293 24.3552C6.15666 24.3552 0.713867 19.0829 0.713867 12.6102C0.713867 6.13751 6.15666 0.865234 12.6293 0.865234C16.2101 0.865234 18.761 2.27027 20.6776 4.10158L18.4132 6.366C17.0388 5.07692 15.1768 4.0743 12.6259 4.0743C7.8993 4.0743 4.20257 7.88357 4.20257 12.6102C4.20257 17.3368 7.8993 21.1461 12.6259 21.1461C15.6918 21.1461 17.4378 19.915 18.5564 18.7964C19.4635 17.8893 20.0603 16.5934 20.2956 14.8235L12.6259 14.8269Z" fill="#ADADAD"/>
</svg>
