<svg width="120" height="28" viewBox="0 0 157 28" fill="none" xmlns="http://www.w3.org/2000/svg">
<path d="M3.17126 1.43366H8.47023V6.12023H12.2886V9.85403H8.47023V17.5534C8.47023 19.1757 8.98974 19.4847 10.7561 19.4847H12.2886V23.2957H8.91181C4.62588 23.2957 3.17126 22.4717 3.17126 18.4804V9.85403H0.443848V6.12023H3.17126V1.43366ZM30.2635 17.9397C28.705 22.0082 25.0685 23.7592 21.6138 23.7592C15.9771 23.7592 12.1068 20.3859 12.1068 14.6436C12.1068 9.13302 16.3148 5.65672 21.4059 5.65672C27.1725 5.65672 30.7051 9.98279 30.3415 16.0856H17.4837C17.6395 18.5319 19.5617 19.6392 21.4839 19.6392C23.51 19.6392 24.7827 18.9182 25.3802 17.9139L30.2635 17.9397ZM17.5616 12.8926H25.0685C24.9646 10.7295 23.458 9.64803 21.4319 9.64803C19.5097 9.64803 17.8473 10.6265 17.5616 12.8926ZM48.5762 12.4291H43.6408C43.1733 10.4205 41.9005 9.72528 40.342 9.72528C38.4458 9.72528 36.5755 11.0128 36.5755 14.6951C36.5755 18.4289 38.4458 19.6649 40.342 19.6649C42.2901 19.6649 43.511 18.6607 43.9006 17.0126H48.8359C47.641 22.1112 43.485 23.7335 40.0043 23.7335C34.2897 23.7335 31.1467 20.1027 31.1467 14.6179C31.1467 9.13302 34.7573 5.63097 40.0043 5.63097C43.5889 5.63097 47.5371 7.25324 48.5762 12.4291ZM54.7323 8.41201C55.4856 7.12449 57.3818 5.75972 60.1092 5.75972C64.551 5.75972 65.9537 8.36051 65.9537 13.0213V23.3472H60.6547V14.3604C60.6547 11.9141 60.5768 9.90554 58.0052 9.90554C55.7194 9.90554 54.7583 11.3733 54.7583 14.5921V23.3987H49.4593V0.223389H54.7583L54.7323 8.41201ZM78.1621 11.1931C77.7984 9.90554 76.4477 9.54503 74.7853 9.54503C72.941 9.54503 72.0319 9.98278 72.0319 10.8325C72.0319 11.6308 72.6553 12.0943 74.1619 12.3776L77.4088 12.9441C81.5648 13.6908 83.5649 14.9269 83.5649 17.9397C83.5649 21.8022 79.9803 23.7592 75.1749 23.7592C70.5513 23.7592 67.2784 21.828 66.681 17.7594H71.6163C72.0838 19.4074 73.4346 19.9224 75.2528 19.9224C77.149 19.9224 78.4738 19.4074 78.4738 18.3774C78.4738 17.6307 77.7984 17.1156 75.7464 16.7809L72.6553 16.2659C69.3045 15.7251 67.0186 14.0513 67.0186 11.0128C67.0186 7.588 70.6552 5.70822 74.9411 5.70822C78.8894 5.70822 82.5 7.27899 83.1493 11.2188L78.1621 11.1931ZM86.2924 1.43366H91.5913V6.12023H95.4097V9.85403H91.5913V17.5534C91.5913 19.1757 92.1108 19.4847 93.8772 19.4847H95.3837V23.2957H92.0329C87.747 23.2957 86.2924 22.4717 86.2924 18.4804V9.85403H83.5649V6.12023H86.2924V1.43366ZM107.514 11.9141C107.514 9.85403 106.527 9.18452 104.579 9.18452C102.865 9.18452 101.722 10.06 101.488 11.7081H96.5266C96.7864 8.46352 99.8774 5.60522 105.021 5.60522C110.034 5.60522 112.865 7.61375 112.761 12.8411L112.683 16.5749V18.3774C112.683 20.2572 112.813 22.2915 113.073 23.3472H107.852L107.774 21.2615C106.475 23.0897 104.423 23.7592 101.93 23.7592C98.6306 23.7592 95.9292 21.8537 95.9292 18.7122C95.9292 14.4891 100.735 13.1243 107.462 12.6093L107.514 11.9141ZM107.67 15.6994C103.956 16.0599 101.488 16.4204 101.488 18.3259C101.488 19.4332 102.553 20.1799 103.93 20.1799C106.06 20.1799 107.67 19.2787 107.67 16.1114V15.6994ZM124.918 11.1931C124.45 11.1158 123.931 11.0643 123.463 11.09C120.891 11.09 119.567 12.0171 119.567 14.6951V23.3215H114.242V6.12023H119.359V9.39053C120.164 7.3305 121.619 6.12023 124.086 6.01723H124.476C124.632 6.01723 124.762 6.01722 124.918 6.04297V11.1931ZM136.659 11.1931C136.295 9.90554 134.944 9.54503 133.282 9.54503C131.438 9.54503 130.528 9.98278 130.528 10.8325C130.528 11.6308 131.152 12.0943 132.658 12.3776L135.879 12.9441C140.035 13.6908 142.035 14.9269 142.035 17.9397C142.035 21.8022 138.451 23.7592 133.645 23.7592C129.048 23.7592 125.749 21.828 125.151 17.7594H130.087C130.554 19.4074 131.905 19.9224 133.723 19.9224C135.62 19.9224 136.944 19.4074 136.944 18.3774C136.944 17.6307 136.269 17.1156 134.217 16.7809L131.126 16.2659C127.775 15.7251 125.515 14.0513 125.515 11.0128C125.515 7.588 129.152 5.70822 133.438 5.70822C137.386 5.70822 140.996 7.27899 141.646 11.2188L136.659 11.1931Z" fill="#ADADAD"/>
<path d="M141.932 27.7765V23.3474H156.27V27.7765H141.932Z" fill="#ADADAD"/>
</svg>
