<svg width="43" height="43" viewBox="0 0 43 43" fill="none" xmlns="http://www.w3.org/2000/svg" >
<path d="M0 24.2254V18.7747H8.57981L15.5446 19.6831L16.0493 18.5728L10.3967 14.3333L4.34038 8.17606L8.17606 4.44132L14.2324 10.4977L18.5728 16.0493L19.6831 15.5446L18.7746 8.57981V0H24.2253V8.57981L23.3169 15.5446L24.4272 16.0493L28.7676 10.4977L34.8239 4.44132L38.6596 8.17606L32.6033 14.3333L26.9507 18.5728L27.4554 19.6831L34.4202 18.7747H43V24.2254H34.4202L27.4554 23.4178L26.9507 24.4272L32.6033 28.7676L38.6596 34.8239L34.8239 38.6596L28.7676 32.6033L24.4272 26.9507L23.3169 27.4554L24.2253 34.4202V43H18.7746V34.4202L19.6831 27.4554L18.5728 26.9507L14.2324 32.6033L8.17606 38.6596L4.34038 34.8239L10.3967 28.7676L16.0493 24.4272L15.5446 23.4178L8.57981 24.2254H0Z" fill="#FFD405"/>
</svg>
