<svg width="115" height="24" viewBox="0 0 115 24" fill="none" xmlns="http://www.w3.org/2000/svg">
<g clip-path="url(#clip0_4040_135)">
<path d="M3.84737 15.8274C3.84737 17.2071 4.13718 18.2664 4.51598 18.9072C5.01262 19.7466 5.75338 20.1022 6.50857 20.1022C7.48262 20.1022 8.3737 19.8496 10.0909 17.368C11.4666 15.3788 13.0876 12.5868 14.1783 10.8364L16.0254 7.87099C17.3085 5.81152 18.7936 3.52209 20.4964 1.97026C21.8865 0.703665 23.3861 0 24.8953 0C27.429 0 29.8425 1.53424 31.6896 4.41173C33.711 7.56314 34.6923 11.5326 34.6923 15.6289C34.6923 18.0641 34.2329 19.8534 33.4513 21.267C32.6961 22.6341 31.2242 24 28.7482 24V20.1022C30.8683 20.1022 31.3974 18.0666 31.3974 15.737C31.3974 12.4172 30.6566 8.73298 29.0248 6.10052C27.8667 4.2333 26.366 3.09236 24.7149 3.09236C22.9291 3.09236 21.4921 4.49969 19.8771 7.009C19.0185 8.3422 18.1371 9.96691 17.1474 11.8002L16.0579 13.817C13.8693 17.8718 13.3149 18.7954 12.2206 20.3196C10.3026 22.9885 8.66471 24 6.50857 24C3.95079 24 2.33338 22.8427 1.33167 21.0986C0.51395 19.6775 0.112305 17.8128 0.112305 15.688L3.84737 15.8274Z" fill="#ADADAD"/>
<path d="M3.05713 4.68691C4.76953 1.9288 7.24074 0 10.0751 0C11.7166 0 13.3484 0.507644 15.0524 1.96147C16.9163 3.55099 18.9029 6.16838 21.3813 10.4821L22.27 12.0302C24.4153 15.7646 25.6359 17.6859 26.3502 18.5918C27.2689 19.7554 27.9123 20.1022 28.748 20.1022C30.8681 20.1022 31.3972 18.0666 31.3972 15.737L34.6921 15.6289C34.6921 18.0641 34.2328 19.8534 33.4511 21.267C32.6959 22.6341 31.224 24 28.748 24C27.2088 24 25.8451 23.6507 24.3371 22.1642C23.1779 21.0232 21.8226 18.9964 20.78 17.1744L17.6787 11.7613C16.1226 9.04461 14.6952 7.01906 13.8691 6.10178C12.9804 5.11539 11.838 3.92419 10.015 3.92419C8.53947 3.92419 7.28643 5.00607 6.23782 6.66094L3.05713 4.68691Z" fill="#ADADAD"/>
<path d="M10.0152 3.92419C8.53965 3.92419 7.28661 5.00607 6.238 6.66094C4.75528 8.99937 3.84737 12.4825 3.84737 15.8274C3.84737 17.2071 4.13718 18.2664 4.51598 18.9072L1.33167 21.0986C0.51395 19.6775 0.112305 17.8128 0.112305 15.688C0.112305 11.8241 1.12724 7.79686 3.0573 4.68691C4.76971 1.9288 7.24091 0 10.0753 0L10.0152 3.92419Z" fill="#ADADAD"/>
<path d="M41.9531 0.759033H46.2738L53.6201 14.6464L60.9676 0.759033H65.1945V23.5779H61.6698V6.08929L55.2267 18.1999H51.9197L45.4777 6.08929V23.5779H41.9531V0.759033ZM76.2385 9.2671C73.7108 9.2671 72.1884 11.255 71.824 13.7165H80.4029C80.2261 11.1808 78.8264 9.2671 76.2385 9.2671ZM68.3295 15.1188C68.3295 9.93935 71.533 6.16971 76.2998 6.16971C80.9885 6.16971 83.788 9.8916 83.788 15.3953V16.4068H71.824C72.2485 19.0845 73.9489 20.8889 76.6907 20.8889C78.8781 20.8889 80.2453 20.1915 81.5417 18.9161L83.414 21.3123C81.6499 23.0074 79.406 23.985 76.5656 23.985C71.4055 23.985 68.3295 20.0533 68.3295 15.1188ZM88.0618 9.5938H84.8174V6.57809H88.0618V1.59087H91.4626V6.57809H96.3917V9.5938H91.4626V17.2374C91.4626 19.8472 92.261 20.7745 94.2236 20.7745C95.1195 20.7745 95.6329 20.6941 96.3917 20.5622V23.5452C95.4465 23.8242 94.5446 23.9523 93.5682 23.9523C89.8969 23.9523 88.0618 21.8564 88.0618 17.6608V9.5938ZM110.711 12.5266C110.028 10.7247 108.505 9.39778 106.266 9.39778C103.356 9.39778 101.493 11.5553 101.493 15.0698C101.493 18.4964 103.208 20.7582 106.126 20.7582C108.421 20.7582 110.059 19.3634 110.711 17.6281V12.5266ZM114.112 23.5779H110.774V21.198C109.841 22.599 108.143 23.985 105.393 23.985C100.97 23.985 98.014 20.1161 98.014 15.0698C98.014 9.97579 101.041 6.16971 105.58 6.16971C107.824 6.16971 109.585 7.1071 110.774 8.76197V6.57809H114.112V23.5779Z" fill="#ADADAD"/>
</g>
<defs>
<clipPath id="clip0_4040_135">
<rect width="114" height="24" fill="white" transform="translate(0.112305)"/>
</clipPath>
</defs>
</svg>
