<svg width="32" height="32" viewBox="0 0 32 32" fill="none" xmlns="http://www.w3.org/2000/svg">
<g clip-path="url(#clip0_4040_122)">
<path d="M0 0H32V32H0V0Z" fill="#ADADAD"/>
<path d="M14.9218 18.0932L9.4292 7.80396H11.9393L15.1703 14.3155C15.2201 14.4315 15.2781 14.5516 15.3443 14.6758C15.4106 14.8001 15.4686 14.9286 15.5182 15.0611C15.5514 15.1108 15.5762 15.1563 15.5928 15.1978C15.6094 15.2391 15.6259 15.2766 15.6426 15.3096C15.7224 15.4687 15.797 15.6303 15.8663 15.7942C15.9326 15.9517 15.9905 16.0967 16.0401 16.2292C16.1727 15.9475 16.3177 15.6451 16.4751 15.3221C16.6326 14.999 16.7941 14.6633 16.9597 14.3155L20.2404 7.80396H22.5767L17.0342 18.2175V24.8533H14.9217L14.9218 18.0932Z" fill="white"/>
</g>
<defs>
<clipPath id="clip0_4040_122">
<rect width="32" height="32" fill="white"/>
</clipPath>
</defs>
</svg>
